<?xml version="1.0" standalone="no"?>
<!DOCTYPE svg PUBLIC "-//W3C//DTD SVG 20010904//EN"
 "http://www.w3.org/TR/2001/REC-SVG-20010904/DTD/svg10.dtd">
<svg version="1.0" xmlns="http://www.w3.org/2000/svg"
 width="626.000000pt" height="278.000000pt" viewBox="0 0 626.000000 278.000000"
 preserveAspectRatio="xMidYMid meet">

<g transform="translate(0.000000,278.000000) scale(0.100000,-0.100000)"
fill="#000000" stroke="none">
<path d="M4318 2657 c-26 -7 -38 -16 -38 -29 0 -10 -6 -18 -13 -18 -8 0 -22
-9 -32 -20 -10 -11 -23 -20 -30 -20 -20 0 -42 -33 -49 -75 -13 -75 -38 -136
-71 -172 -19 -21 -32 -40 -29 -44 2 -4 -1 -11 -7 -15 -8 -4 -9 -3 -5 4 4 7 3
12 -3 12 -5 0 -13 -4 -16 -10 -3 -5 -12 -10 -20 -10 -10 0 -11 5 -2 24 7 13
15 22 19 20 3 -2 10 5 13 17 4 11 12 18 19 16 9 -4 11 2 8 19 -4 20 -9 23 -26
18 -11 -3 -29 -16 -39 -28 -18 -20 -19 -20 -13 -1 6 20 6 20 -9 1 -8 -11 -15
-29 -15 -39 0 -11 -7 -25 -15 -31 -12 -9 -13 -17 -3 -50 7 -22 20 -41 30 -44
10 -2 18 -9 18 -14 0 -22 -37 -77 -88 -130 l-55 -58 18 -40 c19 -43 29 -47 70
-28 40 18 55 -4 27 -41 -20 -28 -20 -29 -2 -24 31 8 25 -26 -6 -37 -38 -15
-48 -12 -33 7 12 15 12 16 -3 10 -13 -4 -18 -1 -18 11 -1 15 -2 14 -15 -3 -8
-11 -18 -24 -22 -30 -10 -12 -33 -72 -40 -101 -3 -13 1 -23 11 -27 9 -4 16 -1
16 6 0 7 8 19 18 28 9 8 26 27 37 41 14 18 32 28 59 31 l39 5 -21 -21 c-11
-11 -30 -21 -41 -22 -26 -2 -61 -42 -61 -70 0 -16 7 -24 25 -27 13 -3 26 0 29
6 5 16 32 -21 51 -72 18 -47 15 -62 -10 -42 -9 8 -27 10 -46 6 -28 -5 -32 -3
-52 42 -21 45 -24 47 -52 41 -24 -5 -27 -7 -13 -13 9 -4 21 -5 26 -2 5 3 14
-10 19 -29 11 -33 10 -33 -21 -33 -67 1 -106 -13 -106 -38 0 -9 5 -12 11 -8
14 8 159 11 159 3 0 -3 12 -12 26 -19 24 -13 25 -15 7 -28 -17 -13 -16 -14 5
-7 13 4 22 2 22 -4 0 -15 -63 -24 -112 -17 -24 4 -55 8 -70 9 -19 1 -24 5 -17
14 6 6 6 14 1 17 -5 3 -16 -4 -26 -16 -15 -17 -16 -22 -5 -29 10 -6 6 -9 -13
-9 -32 0 -32 0 -16 -35 10 -22 17 -25 62 -25 49 0 126 20 214 55 43 17 45 20
46 65 1 15 7 25 16 25 8 0 21 7 28 15 9 11 12 12 10 1 -5 -25 126 -54 219 -47
79 5 183 32 183 48 0 12 -22 9 -50 -7 -14 -8 -36 -14 -49 -15 -24 0 -24 0 -5
15 10 8 30 15 42 15 15 0 26 7 29 19 5 20 32 29 70 23 14 -2 20 -8 16 -18 -3
-8 1 -14 10 -14 9 0 31 -18 50 -40 33 -39 87 -63 87 -40 0 16 -31 73 -45 85
-14 11 -26 75 -14 75 3 0 10 -10 13 -22 7 -22 8 -22 23 9 21 42 41 49 49 18 7
-29 16 -31 34 -10 12 15 30 12 30 -5 0 -5 -6 -15 -12 -22 -14 -15 -38 -55 -38
-63 0 -3 8 -5 18 -5 10 0 26 14 36 30 9 17 21 28 26 25 12 -7 20 21 20 68 0
46 -35 107 -62 107 -9 0 -24 3 -33 7 -14 5 -16 2 -10 -15 9 -30 -4 -27 -42 7
-54 50 -66 85 -33 96 11 4 18 11 15 16 -8 13 33 102 43 95 5 -3 13 -34 16 -68
7 -56 41 -137 53 -124 3 2 -3 16 -12 30 -14 21 -15 32 -7 54 9 23 14 62 28
232 7 83 -44 194 -126 275 -33 33 -60 53 -60 45 0 -16 93 -129 116 -143 20
-12 17 -37 -3 -34 -10 1 -24 6 -30 10 -8 5 -13 4 -13 -2 0 -6 5 -11 10 -11 6
0 10 -7 10 -15 0 -8 4 -15 8 -15 5 0 17 -7 28 -16 10 -8 12 -13 4 -9 -8 4 -6
-1 4 -9 19 -16 19 -16 -3 -16 -79 0 -117 34 -192 175 -19 37 -29 49 -24 30 25
-101 25 -97 2 -91 -21 5 -21 4 2 -13 38 -29 77 -145 61 -186 -13 -35 -13 -35
11 -35 15 0 20 -5 17 -22 -2 -18 -10 -23 -33 -23 -26 -1 -32 -6 -45 -42 -8
-22 -22 -49 -31 -60 -9 -10 -19 -26 -22 -35 -4 -10 -15 -18 -26 -18 -11 0 -41
-9 -67 -20 -74 -32 -125 -41 -169 -29 -42 12 -105 57 -105 75 0 6 -7 18 -17
25 -38 32 -53 90 -53 206 0 109 1 113 28 145 16 18 32 46 36 62 6 24 11 27 34
23 15 -2 44 -12 65 -21 20 -9 37 -12 37 -7 0 5 -24 18 -54 30 l-53 22 26 67
c15 37 32 77 39 89 13 24 122 69 131 55 8 -13 132 -74 138 -68 3 2 -8 11 -25
20 -30 16 -41 37 -34 69 3 14 10 16 45 11 l42 -7 -20 23 c-23 26 -95 81 -104
79 -3 -1 -23 -6 -43 -12z m-319 -544 c-5 -17 -19 -33 -30 -36 -21 -6 -19 0 16
45 25 32 28 30 14 -9z m716 -14 c5 -6 3 -9 -5 -9 -15 0 -80 36 -80 44 0 7 73
-24 85 -35z m14 -53 c23 -27 -3 -18 -39 14 l-35 31 31 -15 c17 -8 36 -22 43
-30z m-5 -82 c5 -14 4 -15 -9 -4 -17 14 -19 20 -6 20 5 0 12 -7 15 -16z m-54
-245 c12 -23 19 -43 17 -46 -6 -5 -57 67 -57 79 0 21 22 3 40 -33z m-347 -53
c4 -10 1 -13 -9 -9 -15 6 -19 23 -5 23 5 0 11 -7 14 -14z m-40 -23 c-7 -2 -19
-2 -25 0 -7 3 -2 5 12 5 14 0 19 -2 13 -5z m-243 -84 c0 -15 -4 -31 -10 -34
-6 -4 -10 8 -10 29 0 19 -3 43 -6 53 -5 16 -4 16 10 -1 9 -11 16 -32 16 -47z
m293 -66 c-13 -2 -35 -2 -50 0 -16 2 -5 4 22 4 28 0 40 -2 28 -4z"/>
<path d="M4480 2542 c0 -5 7 -9 15 -9 8 0 12 4 9 9 -3 4 -9 8 -15 8 -5 0 -9
-4 -9 -8z"/>
<path d="M4530 2490 c12 -16 24 -30 26 -30 3 0 -4 14 -16 30 -12 17 -24 30
-26 30 -3 0 4 -13 16 -30z"/>
<path d="M4476 2437 c3 -10 9 -15 12 -12 3 3 0 11 -7 18 -10 9 -11 8 -5 -6z"/>
<path d="M4026 2393 c-6 -14 -5 -15 5 -6 7 7 10 15 7 18 -3 3 -9 -2 -12 -12z"/>
<path d="M4123 2270 c-25 -10 -30 -29 -11 -48 13 -13 29 -16 27 -4 -4 21 3 24
15 6 12 -16 18 -17 35 -7 15 10 21 10 25 0 3 -7 4 1 2 18 -3 38 -46 54 -93 35z
m84 -16 c-3 -3 -12 -4 -19 -1 -8 3 -5 6 6 6 11 1 17 -2 13 -5z"/>
<path d="M4393 2253 c15 -2 37 -2 50 0 12 2 0 4 -28 4 -27 0 -38 -2 -22 -4z"/>
<path d="M4400 2222 c23 -4 24 -5 5 -12 -17 -7 -17 -9 -3 -9 12 -1 15 -6 11
-17 -5 -14 -2 -16 20 -10 21 5 27 3 27 -10 0 -11 5 -14 16 -10 9 3 18 6 20 6
2 0 4 6 4 13 0 24 -34 45 -80 50 -25 2 -34 2 -20 -1z"/>
<path d="M4275 2040 c-4 -6 6 -10 22 -10 22 0 25 2 13 10 -19 12 -27 12 -35 0z"/>
<path d="M4140 1981 c0 -5 7 -11 15 -15 8 -3 15 -1 15 4 0 5 10 11 23 13 13 3
8 5 -15 6 -21 0 -38 -3 -38 -8z"/>
<path d="M4288 1963 c6 -2 18 -2 25 0 6 3 1 5 -13 5 -14 0 -19 -2 -12 -5z"/>
<path d="M4335 1950 c3 -5 15 -10 26 -10 10 0 19 5 19 10 0 6 -12 10 -26 10
-14 0 -23 -4 -19 -10z"/>
<path d="M3691 1556 c-17 -20 -26 -86 -12 -86 6 0 11 6 11 13 0 7 11 29 25 50
24 34 24 37 7 37 -11 0 -25 -6 -31 -14z"/>
<path d="M3586 1528 c-3 -10 -8 -25 -11 -33 -2 -8 0 -17 5 -20 6 -4 10 -1 10
5 0 6 4 9 9 6 16 -10 20 21 6 41 -13 17 -14 17 -19 1z"/>
<path d="M3633 1493 c-6 -20 -9 -41 -7 -45 7 -12 24 -10 24 3 0 5 -4 7 -10 4
-13 -8 -13 1 1 26 5 11 9 27 7 35 -2 8 -8 -2 -15 -23z"/>
<path d="M4700 1506 c0 -14 45 -34 55 -24 8 7 -10 25 -32 32 -17 6 -23 3 -23
-8z"/>
<path d="M2400 1466 c0 -14 13 -86 29 -159 17 -72 55 -256 86 -407 30 -151 62
-284 69 -295 15 -23 368 -165 411 -165 32 0 43 -25 22 -48 -21 -23 -10 -38 40
-56 46 -16 53 -13 53 23 0 66 45 161 76 161 20 0 27 -19 14 -35 -10 -11 -10
-15 -1 -15 7 0 9 -5 5 -12 -4 -6 -13 -37 -19 -67 -8 -40 -17 -59 -32 -66 -19
-10 -20 -12 -4 -31 9 -11 30 -24 46 -28 28 -6 29 -5 11 9 -19 14 -19 16 -3 28
10 6 20 30 24 52 9 62 30 97 56 93 13 -2 21 -9 19 -18 -2 -8 -6 -37 -8 -65 -6
-77 -12 -92 -36 -98 -18 -5 -19 -8 -9 -21 10 -12 10 -23 3 -45 -6 -16 -8 -32
-5 -35 15 -15 64 -4 93 21 32 26 32 27 13 43 -18 14 -18 17 -4 31 23 23 90 14
100 -14 5 -13 10 -16 15 -9 4 8 16 7 41 -4 42 -17 40 -17 60 2 9 9 18 14 20
12 2 -2 -7 -49 -22 -104 -14 -54 -28 -109 -30 -122 l-5 -22 531 0 c493 0 556
3 521 25 -5 3 -10 10 -10 15 0 5 30 0 68 -11 91 -27 235 -37 259 -18 14 12 16
12 8 0 -6 -11 -5 -12 6 -5 8 5 21 8 29 6 8 -1 22 2 30 8 12 7 12 12 3 21 -9 9
-15 9 -26 0 -17 -13 -16 -1 10 104 15 63 15 95 5 340 -7 156 -18 293 -26 325
-8 34 -14 45 -15 30 -1 -14 -5 -31 -10 -39 -5 -8 -3 -35 6 -67 15 -58 17 -101
14 -264 -1 -58 0 -122 3 -142 2 -21 3 -38 2 -38 -2 0 -23 11 -47 24 -24 13
-74 34 -111 47 -65 22 -87 39 -52 39 23 0 97 -22 108 -32 20 -16 24 -7 10 19
-7 16 -14 34 -14 41 0 6 -3 11 -7 11 -24 -4 -29 5 -29 44 1 26 -7 58 -21 85
-24 45 -30 87 -13 97 14 9 12 78 -2 94 -10 11 -10 13 0 7 8 -5 12 -1 12 12 0
12 -15 25 -45 38 -36 15 -43 22 -35 34 8 12 13 13 29 3 13 -8 22 -9 26 -3 3 6
-5 14 -19 20 -24 9 -24 10 -10 40 9 16 19 30 22 30 4 0 8 23 9 50 3 58 -7 62
-49 20 -36 -37 -52 -39 -44 -6 3 14 2 28 -4 31 -5 3 -10 1 -10 -6 0 -7 -3 -9
-7 -6 -3 4 3 17 14 30 12 12 30 38 41 59 17 30 18 39 8 54 -12 16 -15 16 -48
-9 -19 -15 -40 -27 -46 -27 -7 0 -12 -7 -12 -16 0 -8 -4 -13 -8 -10 -4 3 -61
-14 -125 -38 -129 -46 -129 -47 -28 -77 52 -16 102 -56 80 -64 -8 -2 -38 3
-67 13 -29 10 -69 16 -88 14 l-34 -4 37 -19 c21 -10 44 -19 53 -19 8 0 2 -9
-16 -20 -17 -11 -42 -20 -55 -20 -13 0 -35 0 -49 1 -13 0 -31 6 -40 14 -8 7
-17 13 -20 13 -12 -1 -98 24 -125 37 -17 7 -67 15 -113 16 -107 3 -235 36
-271 70 -14 14 -43 38 -63 53 -21 16 -38 37 -38 48 0 11 -5 29 -12 41 -6 12
-11 36 -9 53 1 18 -3 35 -9 39 -8 5 -10 28 -5 77 5 49 4 69 -3 64 -15 -9 -32
25 -33 66 l-1 33 -10 -30 c-5 -16 -13 -73 -18 -125 -10 -124 -49 -400 -57
-414 -4 -6 -17 47 -29 118 -14 82 -29 138 -41 154 -25 33 -36 37 -658 207 -93
26 -190 53 -215 60 -25 8 -62 17 -82 21 -36 6 -38 5 -38 -20z m2200 -764 c0
-15 9 -45 19 -68 15 -33 34 -160 36 -239 1 -37 24 -65 53 -65 37 0 62 -20 53
-43 -6 -16 -8 -16 -30 4 l-23 21 6 -48 c5 -35 4 -43 -3 -28 -11 25 -34 36 -57
27 -10 -4 -17 2 -22 18 -6 23 -6 23 -12 -6 l-5 -30 -25 25 c-22 22 -40 45 -68
85 -4 6 -19 16 -34 22 -17 8 -28 22 -33 42 -4 17 -11 33 -16 36 -13 9 -11 46
4 72 81 142 134 216 148 207 5 -3 9 -17 9 -32z m-736 -57 c45 -30 109 -67 142
-81 65 -30 74 -38 74 -72 0 -17 7 -24 30 -28 27 -6 110 -67 110 -82 0 -7 -84
-12 -230 -14 -74 -1 -139 22 -147 53 -6 21 -28 24 -67 9 -19 -7 -29 -5 -41 7
-21 21 -15 35 26 55 l34 17 -35 0 c-20 0 -59 -12 -89 -29 -59 -32 -71 -31 -71
5 0 18 -4 22 -20 18 -16 -4 -20 0 -20 18 0 18 -3 20 -12 11 -16 -16 -28 -15
-28 2 0 23 77 79 168 123 48 23 89 42 90 42 2 1 41 -24 86 -54z m486 -85 c0
-5 -7 -10 -15 -10 -8 0 -15 5 -15 10 0 6 7 10 15 10 8 0 15 -4 15 -10z m-34
-29 c7 -12 26 -38 44 -56 32 -33 32 -33 11 -45 -12 -6 -27 -9 -34 -6 -7 2 -4
5 6 5 26 1 21 12 -27 55 -30 27 -42 45 -38 58 6 24 24 18 38 -11z m-200 -6
c16 -12 16 -14 3 -15 -9 0 -22 7 -29 15 -16 19 0 19 26 0z m652 -7 c-6 -18
-25 -20 -31 -3 -5 10 0 15 14 15 12 0 19 -5 17 -12z m74 -222 c26 -17 48 -35
48 -39 0 -4 -20 7 -44 25 -24 18 -52 39 -62 46 -37 25 12 -1 58 -32z m-1109
-63 c-7 -2 -19 -2 -25 0 -7 3 -2 5 12 5 14 0 19 -2 13 -5z"/>
<path d="M4295 1440 c3 -5 13 -10 21 -10 8 0 14 5 14 10 0 6 -9 10 -21 10 -11
0 -17 -4 -14 -10z"/>
<path d="M4340 1440 c0 -13 20 -13 40 0 12 8 9 10 -12 10 -16 0 -28 -4 -28
-10z"/>
<path d="M4785 1431 c-3 -6 -16 -12 -28 -12 -20 -1 -21 -2 -2 -6 11 -3 30 -15
43 -26 l24 -22 -4 34 c-3 35 -21 51 -33 32z"/>
<path d="M4845 1342 c6 -4 19 -20 29 -35 22 -36 30 -30 15 11 -8 23 -17 32
-32 32 -12 0 -17 -4 -12 -8z"/>
<path d="M4871 1214 c0 -11 3 -14 6 -6 3 7 2 16 -1 19 -3 4 -6 -2 -5 -13z"/>
<path d="M4720 1180 c0 -13 11 -13 30 0 12 8 11 10 -7 10 -13 0 -23 -4 -23
-10z"/>
<path d="M4956 93 c-6 -14 -5 -15 5 -6 7 7 10 15 7 18 -3 3 -9 -2 -12 -12z"/>
</g>
</svg>
